<svg xmlns="http://www.w3.org/2000/svg" enable-background="new 0 0 66 66" viewBox="0 0 66 66"><path fill="#e8fafc" d="M65,33c0,17.67-14.33,32-32,32C15.33,65,1,50.67,1,33S15.33,1,33,1C50.67,1,65,15.33,65,33z"/><path fill="#aff2b6" d="M21.15,24.11v33.7h-9.48c-1.62,0-2.93-1.31-2.93-2.93V24.11H21.15z"/><path fill="#9eefa4" d="M21.15,24.11v33.7h-9.48c-1.61,0-2.93-1.32-2.93-2.93v-0.07h6.58c1.51,0,2.73-1.22,2.73-2.73V24.11H21.15z"/><path fill="#5b5476" d="M21.15,58.21h-9.48c-1.84,0-3.33-1.49-3.33-3.33V24.11c0-0.22,0.18-0.4,0.4-0.4h12.41c0.22,0,0.4,0.18,0.4,0.4v33.7C21.55,58.03,21.37,58.21,21.15,58.21z M9.14,24.51v30.37c0,1.39,1.13,2.53,2.53,2.53h9.08v-32.9H9.14z"/><polygon fill="#fffeff" points="21.15 24.11 14.71 14.75 14.71 14.75 8.74 24.11"/><path fill="#efefef" d="M16.38,20.42L16.38,20.42c0.6,0.88-0.02,2.07-1.09,2.07H9.77l-1.03,1.61h12.41l-2.53-3.69H16.38z"/><path fill="#5b5476" d="M21.15,24.51H8.74c-0.15,0-0.28-0.08-0.35-0.21c-0.07-0.13-0.06-0.28,0.01-0.41l5.97-9.36c0.07-0.11,0.2-0.18,0.33-0.18c0.13,0,0.26,0.06,0.34,0.17l6.43,9.36c0.08,0.12,0.09,0.28,0.02,0.41C21.43,24.43,21.29,24.51,21.15,24.51z M9.47,23.71h10.92l-5.66-8.24L9.47,23.71z"/><path fill="#fffeff" d="M21.15,24.11v33.7h12.62c1.62,0,2.93-1.31,2.93-2.93V24.11H21.15z"/><path fill="#efefef" d="M36.69,24.11v30.78c0,1.61-1.31,2.93-2.93,2.93H21.15v-3.28h10.02c1.62,0,2.93-1.31,2.93-2.93v-27.5H36.69z"/><path fill="#5b5476" d="M33.76,58.21H21.15c-0.22,0-0.4-0.18-0.4-0.4v-33.7c0-0.22,0.18-0.4,0.4-0.4h15.55c0.22,0,0.4,0.18,0.4,0.4v30.77C37.09,56.72,35.6,58.21,33.76,58.21z M21.55,57.41h12.22c1.39,0,2.53-1.13,2.53-2.53V24.51H21.55V57.41z"/><polygon fill="#aff2b6" points="21.15 24.11 14.71 14.75 30.26 14.75 36.69 24.11"/><path fill="#9eefa4" d="M36.69,24.11H21.15l-1.4-2.03h8.59c1.68,0,2.67-1.88,1.72-3.26l-2.79-4.06h2.99L36.69,24.11z"/><path fill="#5b5476" d="M36.69,24.51H21.15c-0.13,0-0.25-0.06-0.33-0.17l-6.43-9.36c-0.08-0.12-0.09-0.28-0.02-0.41c0.07-0.13,0.21-0.21,0.35-0.21h15.55c0.13,0,0.25,0.06,0.33,0.17l6.43,9.36c0.08,0.12,0.09,0.28,0.02,0.41C36.98,24.43,36.84,24.51,36.69,24.51z M21.36,23.71h14.58l-5.88-8.56H15.47L21.36,23.71z"/><path fill="#86d3fd" d="M14.71,10.41v4.34h15.55v-4.34c0-1.23-0.99-2.22-2.22-2.22H16.93C15.71,8.19,14.71,9.18,14.71,10.41z"/><path fill="#6bd0fc" d="M30.26,10.41v4.34H14.72v-1.47h12.8c0.69,0,1.24-0.56,1.24-1.24v-3.1c0-0.23-0.03-0.45-0.1-0.66C29.58,8.53,30.26,9.39,30.26,10.41z"/><path fill="#5b5476" d="M30.26,15.15H14.71c-0.22,0-0.4-0.18-0.4-0.4v-4.34c0-1.44,1.17-2.62,2.62-2.62h11.11c1.44,0,2.62,1.18,2.62,2.62v4.34C30.66,14.97,30.48,15.15,30.26,15.15z M15.11,14.35h14.75v-3.94c0-1-0.82-1.82-1.82-1.82H16.93c-1,0-1.82,0.82-1.82,1.82V14.35z"/><path fill="#fffeff" d="M27.16,11.47L27.16,11.47c0,0.54-0.44,0.98-0.98,0.98h-7.39c-0.54,0-0.98-0.44-0.98-0.98l0,0c0-0.54,0.44-0.98,0.98-0.98h7.39C26.72,10.49,27.16,10.93,27.16,11.47z"/><path fill="#5b5476" d="M26.18,12.85h-7.39c-0.76,0-1.38-0.62-1.38-1.38s0.62-1.38,1.38-1.38h7.39c0.76,0,1.38,0.62,1.38,1.38S26.94,12.85,26.18,12.85z M18.79,10.89c-0.32,0-0.58,0.26-0.58,0.58c0,0.32,0.26,0.58,0.58,0.58h7.39c0.32,0,0.58-0.26,0.58-0.58c0-0.32-0.26-0.58-0.58-0.58H18.79z"/><path fill="#86d3fd" d="M34.1,36.67v9.05c0,0.8-0.65,1.46-1.46,1.46H25.2c-0.8,0-1.46-0.65-1.46-1.46v-9.05c0-0.8,0.65-1.46,1.46-1.46h7.45C33.45,35.22,34.1,35.87,34.1,36.67z"/><path fill="#6bd0fc" d="M34.1,36.67v9.04c0,0.81-0.65,1.45-1.46,1.45H25.2c-0.81,0-1.45-0.64-1.45-1.45v-0.68h6.73c0.81,0,1.46-0.64,1.46-1.45v-8.37h0.7C33.45,35.22,34.1,35.86,34.1,36.67z"/><path fill="#5b5476" d="M32.64,47.58H25.2c-1.02,0-1.86-0.83-1.86-1.86v-9.05c0-1.02,0.83-1.86,1.86-1.86h7.45c1.02,0,1.86,0.83,1.86,1.86v9.05C34.5,46.74,33.66,47.58,32.64,47.58z M25.2,35.61c-0.58,0-1.06,0.47-1.06,1.06v9.05c0,0.58,0.47,1.06,1.06,1.06h7.45c0.58,0,1.06-0.47,1.06-1.06v-9.05c0-0.58-0.47-1.06-1.06-1.06H25.2z"/><path fill="#fffeff" d="M51.18,25.34l-2.12,29.9c-0.13,1.46-1.35,2.57-2.81,2.57H33.62c-1.46,0-2.68-1.12-2.81-2.57l-2.12-29.9c-0.15-1.65,1.15-3.07,2.81-3.07h16.87C50.03,22.26,51.33,23.69,51.18,25.34z"/><path fill="#efefef" d="M50.37,31.98l-0.21,2.38c-8.02-6.48-15.54,3.65-20.41,0.34l-0.24-2.72C34.4,35.86,42.12,25.04,50.37,31.98z"/><path fill="#5b5476" d="M46.24,58.21H33.62c-1.68,0-3.06-1.26-3.21-2.94l-2.12-29.91c-0.08-0.89,0.22-1.79,0.83-2.45c0.61-0.67,1.47-1.05,2.38-1.05h16.87c0.9,0,1.77,0.38,2.38,1.05c0.61,0.66,0.91,1.56,0.83,2.46l-2.12,29.9C49.31,56.95,47.93,58.21,46.24,58.21z M31.5,22.66c-0.69,0-1.32,0.28-1.79,0.79c-0.46,0.51-0.69,1.16-0.63,1.85l2.12,29.91c0.11,1.25,1.15,2.2,2.41,2.2h12.62c1.26,0,2.3-0.95,2.41-2.21l2.12-29.89c0,0,0,0,0-0.01c0.06-0.69-0.16-1.34-0.63-1.85c-0.46-0.51-1.1-0.79-1.79-0.79H31.5z"/><path fill="#ffd9b0" d="M29.5,34.53l1.31,20.71c0.13,1.46,1.35,2.57,2.81,2.57h12.62c1.46,0,2.68-1.12,2.81-2.57l1.31-20.71C42.12,27.59,34.39,38.4,29.5,34.53z"/><path fill="#ffcd9c" d="M50.37,34.53l-1.31,20.71c-0.13,1.45-1.35,2.57-2.81,2.57H33.62c-1.43,0-2.63-1.07-2.8-2.47c0.19,0.05,0.39,0.07,0.59,0.07h12.63c1.46,0,2.68-1.12,2.81-2.57l1.23-19.81C48.84,33.39,49.6,33.88,50.37,34.53z"/><path fill="#5b5476" d="M46.24,58.21H33.62c-1.68,0-3.06-1.26-3.21-2.94L29.1,34.55c-0.01-0.16,0.07-0.31,0.21-0.38c0.14-0.07,0.31-0.06,0.43,0.04c1.92,1.52,4.42,0.53,7.31-0.63c3.87-1.55,8.69-3.47,13.57,0.64c0.1,0.08,0.15,0.2,0.14,0.33l-1.31,20.71C49.31,56.95,47.93,58.21,46.24,58.21z M29.95,35.3l1.26,19.91c0.11,1.25,1.15,2.2,2.41,2.2h12.62c1.26,0,2.3-0.95,2.41-2.21l1.3-20.5c-4.46-3.63-8.78-1.9-12.6-0.38C34.66,35.41,32.1,36.43,29.95,35.3z"/><g><path fill="#aff2b6" d="M50.18,37.12c-0.9,1.1-1.16,2.72-0.58,4.61c3.92,0.41,6.15-2.31,4.99-6.08C52.63,35.44,51.08,36.02,50.18,37.12z"/><path fill="#5b5476" d="M50.37,42.17c-0.26,0-0.53-0.01-0.81-0.04c-0.16-0.02-0.29-0.13-0.34-0.28c-0.61-1.96-0.38-3.73,0.65-4.98h0c1.03-1.25,2.72-1.83,4.76-1.61c0.16,0.02,0.29,0.13,0.34,0.28c0.6,1.96,0.37,3.73-0.66,4.98C53.42,41.59,52.04,42.17,50.37,42.17z M49.91,41.35c1.64,0.11,2.97-0.36,3.78-1.35c0.81-0.99,1.02-2.39,0.59-3.98c-1.65-0.12-2.98,0.36-3.79,1.35l0,0C49.68,38.36,49.47,39.76,49.91,41.35z"/><path fill="#5b5476" d="M49.6,42.13c-0.09,0-0.17-0.03-0.25-0.09c-0.17-0.14-0.2-0.39-0.07-0.56l2.48-3.14c0.14-0.17,0.39-0.2,0.56-0.07c0.17,0.14,0.2,0.39,0.07,0.56l-2.48,3.14C49.84,42.07,49.72,42.13,49.6,42.13z"/><path fill="#ff84a0" d="M39.12,49.1c0.92,4.34,3.84,8.71,6.67,8.71c0.58,0,1.14-0.12,1.66-0.35c1.23-0.53,2.64-0.53,3.86,0c0.52,0.23,1.08,0.35,1.66,0.35c2.83,0,5.75-4.37,6.67-8.71c1.11-5.29-1.07-9.12-5.11-9.12c-1.13,0-2.2,0.43-3.16,1.18c-1.11,0.87-2.87,0.87-3.98,0c-0.96-0.75-2.03-1.18-3.16-1.18C40.19,39.98,38,43.81,39.12,49.1z"/><path fill="#ff769a" d="M39.12,49.1c0.91,4.34,3.84,8.71,6.66,8.71c0.59,0,1.14-0.12,1.67-0.35c1.23-0.53,2.64-0.53,3.86,0c0.52,0.23,1.08,0.35,1.67,0.35c1.05,0,2.11-0.6,3.07-1.57c-0.39,0.15-0.77,0.23-1.16,0.23c-0.58,0-1.14-0.12-1.67-0.35c-1.23-0.53-2.64-0.53-3.86,0c-0.52,0.23-1.08,0.35-1.67,0.35c-2.83,0-5.75-4.37-6.66-8.71c-0.67-3.18-0.15-5.83,1.25-7.44C39.52,41.37,38.2,44.74,39.12,49.1z"/><path fill="#5b5476" d="M52.98,58.21c-0.63,0-1.24-0.13-1.82-0.38c-1.12-0.49-2.42-0.49-3.54,0c-0.58,0.25-1.19,0.38-1.82,0.38c-3.18,0-6.14-4.69-7.06-9.03l0,0c-0.65-3.09-0.21-5.88,1.22-7.64c1.04-1.28,2.52-1.96,4.29-1.96c1.17,0,2.35,0.44,3.41,1.27c0.96,0.75,2.52,0.75,3.49,0c1.06-0.83,2.23-1.27,3.4-1.27c1.76,0,3.24,0.68,4.29,1.96c1.43,1.76,1.87,4.54,1.22,7.64C59.12,53.52,56.16,58.21,52.98,58.21z M49.38,56.66c0.71,0,1.43,0.14,2.09,0.43c0.48,0.21,0.99,0.32,1.51,0.32c2.4,0,5.33-3.92,6.27-8.39c0.6-2.86,0.22-5.4-1.06-6.97c-0.88-1.09-2.15-1.67-3.67-1.67c-1,0-1.98,0.37-2.91,1.1c-1.25,0.98-3.22,0.98-4.47,0c-0.93-0.73-1.91-1.1-2.91-1.1c-1.51,0-2.78,0.58-3.66,1.67c-1.27,1.57-1.66,4.11-1.06,6.97l0,0c0.94,4.47,3.87,8.39,6.27,8.39c0.52,0,1.03-0.11,1.5-0.31C47.95,56.81,48.67,56.66,49.38,56.66z"/><path fill="#5b5476" d="M49.38,42.17C49.38,42.17,49.37,42.17,49.38,42.17c-0.23,0-0.4-0.19-0.4-0.41c0-0.03,0.05-3.21-1.36-4.46c-0.46-0.41-1.02-0.56-1.71-0.46c-0.22,0.02-0.42-0.12-0.45-0.34c-0.03-0.22,0.12-0.42,0.34-0.45c0.93-0.13,1.72,0.09,2.35,0.65c1.69,1.5,1.63,4.93,1.63,5.07C49.78,41.99,49.6,42.17,49.38,42.17z"/></g></svg>