<svg xmlns="http://www.w3.org/2000/svg" enable-background="new 0 0 64 64" viewBox="0 0 64 64"><g transform="translate(76 478)"><path fill="#134563" d="M-27.5-432.3h-30.3c-0.5,0-0.9-0.2-1.1-0.6c-0.3-0.4-0.3-0.9-0.1-1.3l2.6-6.6l-2.6-24.6h-8.4     v-2.8h9.6c0.7,0,1.3,0.5,1.4,1.2l2.8,26.1c0,0.2,0,0.4-0.1,0.7l-2,5h28.2V-432.3"/><path fill="#134563" d="M-54.7-439.2l-.6-2.7 31.9-6.6v-11.3h-33v-2.8H-22c.8 0 1.4.6 1.4 1.4v13.8c0 .7-.5 1.2-1.1 1.3L-54.7-439.2M-26.1-424c-3 0-5.5-2.5-5.5-5.5s2.5-5.5 5.5-5.5c3 0 5.5 2.5 5.5 5.5S-23.1-424-26.1-424L-26.1-424zM-26.1-432.3c-1.5 0-2.8 1.2-2.8 2.8s1.2 2.8 2.8 2.8 2.8-1.2 2.8-2.8S-24.6-432.3-26.1-432.3L-26.1-432.3zM-59.1-424c-3 0-5.5-2.5-5.5-5.5s2.5-5.5 5.5-5.5 5.5 2.5 5.5 5.5S-56.1-424-59.1-424L-59.1-424zM-59.1-432.3c-1.5 0-2.8 1.2-2.8 2.8s1.2 2.8 2.8 2.8 2.8-1.2 2.8-2.8S-57.6-432.3-59.1-432.3L-59.1-432.3z"/></g></svg>