<svg xmlns="http://www.w3.org/2000/svg" enable-background="new 0 0 100 100" viewBox="0 0 100 100"><path d="M72.2,52H7c-1.1,0-2-0.9-2-2s0.9-2,2-2h65.2L59.6,35.4c-0.8-0.8-0.8-2,0-2.8c0.8-0.8,2-0.8,2.8,0l16,16c0.8,0.8,0.8,2,0,2.8
	l-16,16C62,67.8,61.5,68,61,68s-1-0.2-1.4-0.6c-0.8-0.8-0.8-2,0-2.8L72.2,52z M87,10H23c-4.4,0-8,3.6-8,8v16c0,1.1,0.9,2,2,2
	s2-0.9,2-2V18c0-2.2,1.8-4,4-4h64c2.2,0,4,1.8,4,4v64c0,2.2-1.8,4-4,4H23c-2.2,0-4-1.8-4-4V66c0-1.1-0.9-2-2-2s-2,0.9-2,2v16
	c0,4.4,3.6,8,8,8h64c4.4,0,8-3.6,8-8V18C95,13.6,91.4,10,87,10z"/></svg>