<svg xmlns="http://www.w3.org/2000/svg" enable-background="new 0 0 64 64" viewBox="0 0 64 64"><path fill="#fff" d="M31.5919189,27.5c-3.0999146,0-3.0999146-1-6.1997681-1c-3.097229,0-3.097229,1-6.194397,1
	c-3.098877,0-3.098877-1-6.1977539-1V59c0,1.6568604,1.3431396,3,3,3h25c1.6568604,0,3-1.3431396,3-3V27.5
	c-3.1019897,0-3.1019897-1-6.2040405-1C34.6939697,26.5,34.6939697,27.5,31.5919189,27.5z"/><circle cx="20.362" cy="49.617" r="3.149" fill="#f78c8c"/><circle cx="28.444" cy="38.221" r="2.04" fill="#f78c8c"/><circle cx="21.468" cy="32.681" r="2.043" fill="#f78c8c"/><circle cx="48" cy="48" r="14" fill="#f78c8c"/><path fill="#4d4d4d" d="M50.9422493,32.3654175c0.8111305-0.926136,2.0004959-1.3624268,3.6251793-1.3654232
	C55.6719246,31,56.5674324,30.1044922,56.5674324,29c-0.3226318-4.0325661-9.6595764-0.680851-11,3.138855V16
	c0.0132599-2.9362869-2.5391197-5.2121735-5.4429932-5l1.960083-7h2.4829102
	c2.6218452-0.0408449,2.6337318-3.9560659-0.0000916-3.9999945C44.5674324,0,40.5674324,0,40.5674324,0
	c-0.8969727,0-1.684082,0.597168-1.9257812,1.4609375L35.9706917,11H15.5674314c-2.7568359,0-5,2.2431641-5,5v3H5.567431
	c-2.7568357,0-5,2.2431641-5,5v19c0,2.7568359,2.2431641,5,5,5h5.0000005v11c0,2.7568359,2.2431641,5,5,5h25
	c0.8768311,0,1.7098389-0.2450562,2.4528809-0.6676025C64.1522522,68.9090424,72.2093124,37.6252022,50.9422493,32.3654175z
	 M40.5674324,15c0.5512695,0,1,0.4487305,1,1v9.2481689c-1.1927452-0.4417229-3.2380409-0.9169273-5.2345581-0.7077637
	L39.0043221,15H40.5674324z M14.5674314,16c0-0.5512695,0.4487305-1,1-1h19.2832642l-2.9321308,10.4718628
	c-3.0763817,0.2574806-3.5546818-1.0123768-6.9590588-0.9718494c-3.2806454-0.0286465-3.3323936,0.94841-6.1943073,1.0000629
	c-2.0396919,0.0059814-2.3994274-0.5448303-4.1977682-0.8434601V16z M5.567431,44c-0.5512695,0-1-0.4487305-1-1V24
	c0-0.5512695,0.4487305-1,1-1h5.0000005v21H5.567431z M15.5674314,60c-0.5512695,0-1-0.4487305-1-1V28.7528076
	c1.2558899,0.3767586,1.9928713,0.728035,4.1977396,0.7472038C20.6284657,29.5,21.653368,29.1689453,22.4770985,28.9033203
	c1.0619278-0.5192528,3.9073372-0.5173416,4.9687462,0.0001335C28.2695789,29.1694336,29.2949696,29.5,31.1592274,29.5
	c1.8652363,0,2.8911152-0.3305664,3.7158222-0.5966797C35.5742683,28.6782227,36.1265144,28.5,37.3633308,28.5
	c2.0433693-0.0060005,2.4025078,0.5448494,4.2041016,0.8436279v3.8343506
	C30.6648903,37.4680748,28.0593643,52.3121681,37.0199471,60H15.5674314z M47.5674324,60
	c-14.7171288-0.4413528-16.3345547-20.9963112-2.0078735-23.8181152c-0.1364555,2.3298569,0.0424385,3.7667542,2.2207565,3.8030739
	c1.0952225-0.1177711,1.8891678-1.1026344,1.7758865-2.1983376c-0.0355225-0.3428955-0.0476685-0.9285889,0.0105591-1.6060181
	C63.9108849,39.0000153,62.2783318,59.5626183,47.5674324,60z"/><path fill="#4d4d4d" d="M53.5674324 46c-1.1044922 0-2 .8955078-2 2 0 2.2055664-1.7944336 4-4 4-2.6266136.0428848-2.6299744 3.9561615.0000839 3.9999962C51.9785652 56 55.5674324 52.4111328 55.5674324 48 55.5674324 46.8955078 54.6719246 46 53.5674324 46zM41.5674324 48c-2.6273766.0504265-2.6270561 3.9496307.0000839 3.9999962C44.1947746 51.9489899 44.194313 48.0503044 41.5674324 48z"/><path d="M59.7199707,40.3499756c0-0.0100098-0.0099487-0.0100098-0.0099487-0.0200195
	C56.6171112,35.3737183,49.8148918,32.7221603,44,34.5899658l-0.4299927-7.0999756c-2.6799927-0.0900269-4,0.3397961-4,0.3397961
	v5.3502064C28.6599731,37.4699707,26.0599976,52.3099976,35.0200195,60H13.5700073C13.4199829,60,14.6500244,62,16,62h25
	c0.8300171,0,1.5900269-0.3400269,2.1300049-0.8900146C48.3728065,63.2194977,55.0050774,61.4303474,58.5,57.25
	c0,0,0-0.0100098,0.0100098-0.0100098c0-0.0100098,0.0100098-0.0100098,0.0100098-0.0200195
	C61.7999878,52.3200073,62.4699707,45.6499634,59.7199707,40.3499756z M45.5700073,60
	c-14.7200317-0.4400024-16.3400269-21-2.0100098-23.8200073c-0.1400146,2.3300171,0.039978,3.7700195,2.2200317,3.7999878
	c1.0999756-0.1099854,1.8899536-1.0999756,1.7799683-2.1900024c-0.039978-0.3499756-0.0499878-0.9299927,0.0100098-1.6099854
	C61.9099731,39,60.2800293,59.5599976,45.5700073,60z" opacity=".1"/><path d="M51.5674438 46c-1.1044922 0-2 .8955078-2 2 0 2.2055664-1.7944336 4-4 4-2.6266479.0428467-2.6300049 3.9561768.000061 4 4.4110718 0 7.999939-3.5888672 7.999939-8C53.5674438 46.8955078 52.671936 46 51.5674438 46zM39.5674438 48c-2.6273804.050415-2.6270752 3.949585.000061 4C42.1947632 51.9489746 42.1943359 48.050293 39.5674438 48z" opacity=".1"/><path fill="#4d4d4d" d="M50.9422493,32.3654175c0.8111305-0.926136,2.0004959-1.3624268,3.6251793-1.3654232
	C55.6719246,31,56.5674324,30.1044922,56.5674324,29c-0.3226318-4.0325661-9.6595764-0.680851-11,3.138855V16
	c0.0132599-2.9362869-2.5391197-5.2121735-5.4429932-5l1.960083-7h2.4829102
	c2.6218452-0.0408449,2.6337318-3.9560659-0.0000916-3.9999945C44.5674324,0,40.5674324,0,40.5674324,0
	c-0.8969727,0-1.684082,0.597168-1.9257812,1.4609375L35.9706917,11H15.5674314c-2.7568359,0-5,2.2431641-5,5v3H5.567431
	c-2.7568357,0-5,2.2431641-5,5v19c0,2.7568359,2.2431641,5,5,5h5.0000005v11c0,2.7568359,2.2431641,5,5,5h25
	c0.8768311,0,1.7098389-0.2450562,2.4528809-0.6676025C64.1522522,68.9090424,72.2093124,37.6252022,50.9422493,32.3654175z
	 M40.5674324,15c0.5512695,0,1,0.4487305,1,1v9.2481689c-1.1927452-0.4417229-3.2380409-0.9169273-5.2345581-0.7077637
	L39.0043221,15H40.5674324z M14.5674314,16c0-0.5512695,0.4487305-1,1-1h19.2832642l-2.9321308,10.4718628
	c-3.0763817,0.2574806-3.5546818-1.0123768-6.9590588-0.9718494c-3.2806454-0.0286465-3.3323936,0.94841-6.1943073,1.0000629
	c-2.0396919,0.0059814-2.3994274-0.5448303-4.1977682-0.8434601V16z M5.567431,44c-0.5512695,0-1-0.4487305-1-1V24
	c0-0.5512695,0.4487305-1,1-1h5.0000005v21H5.567431z M15.5674314,60c-0.5512695,0-1-0.4487305-1-1V28.7528076
	c1.2558899,0.3767586,1.9928713,0.728035,4.1977396,0.7472038C20.6284657,29.5,21.653368,29.1689453,22.4770985,28.9033203
	c1.0619278-0.5192528,3.9073372-0.5173416,4.9687462,0.0001335C28.2695789,29.1694336,29.2949696,29.5,31.1592274,29.5
	c1.8652363,0,2.8911152-0.3305664,3.7158222-0.5966797C35.5742683,28.6782227,36.1265144,28.5,37.3633308,28.5
	c2.0433693-0.0060005,2.4025078,0.5448494,4.2041016,0.8436279v3.8343506
	C30.6648903,37.4680748,28.0593643,52.3121681,37.0199471,60H15.5674314z M47.5674324,60
	c-14.7171288-0.4413528-16.3345547-20.9963112-2.0078735-23.8181152c-0.1364555,2.3298569,0.0424385,3.7667542,2.2207565,3.8030739
	c1.0952225-0.1177711,1.8891678-1.1026344,1.7758865-2.1983376c-0.0355225-0.3428955-0.0476685-0.9285889,0.0105591-1.6060181
	C63.9108849,39.0000153,62.2783318,59.5626183,47.5674324,60z"/><path fill="#4d4d4d" d="M53.5674324 46c-1.1044922 0-2 .8955078-2 2 0 2.2055664-1.7944336 4-4 4-2.6266136.0428848-2.6299744 3.9561615.0000839 3.9999962C51.9785652 56 55.5674324 52.4111328 55.5674324 48 55.5674324 46.8955078 54.6719246 46 53.5674324 46zM41.5674324 48c-2.6273766.0504265-2.6270561 3.9496307.0000839 3.9999962C44.1947746 51.9489899 44.194313 48.0503044 41.5674324 48z"/></svg>