<svg xmlns="http://www.w3.org/2000/svg" viewBox="0 0 64 64"><path fill="#f0b19f" d="M49.81,63H14.29a1,1,0,1,1,0-2H49.81a1,1,0,0,1,0,2Z"/><path fill="#f0b19f" d="M32.17,63a1,1,0,0,1-.8-.41c-3.8-5.2-3.86-11.48-.2-18.16a1,1,0,1,1,1.76,1c-3.32,6-3.3,11.43,0,16A1,1,0,0,1,32.17,63Z"/><path fill="#91cb7c" fill-rule="evenodd" d="M40,2s-8.37,2.32-10.51,8.17,2.73,13,2.73,13S40.54,20.89,42.69,15,40,2,40,2Z"/><path fill="#91cb7c" fill-rule="evenodd" d="M32.34,44.91s-10-.44-13.93-6.46-.3-15.35-.3-15.35,10,.44,13.93,6.46a4.94,4.94,0,0,1,.3.49l.3-.49c3.93-6,13.94-6.46,13.94-6.46s3.62,9.33-.31,15.35S32.34,44.91,32.34,44.91Z"/><path fill="#66b748" fill-rule="evenodd" d="M31.12,38a10.79,10.79,0,0,1-5.82-4.54,1,1,0,0,0-1.39-.28,1,1,0,0,0-.28,1.39,12.83,12.83,0,0,0,6.88,5.34,1,1,0,0,0,1.26-.65A1,1,0,0,0,31.12,38Z"/><path fill="#d0eec5" fill-rule="evenodd" d="M46.58,23.1s-10,.44-13.94,6.46-.3,15.35-.3,15.35,10-.44,13.93-6.46S46.58,23.1,46.58,23.1Z"/><path fill="#b2e3a0" fill-rule="evenodd" d="M32,43.75a54.43,54.43,0,0,0,6.59-11.16,1,1,0,0,1,1.3-.54,1,1,0,0,1,.54,1.31,55.72,55.72,0,0,1-6.71,11.43c-.82.1-1.33.12-1.33.12S32.18,44.48,32,43.75Z"/><path fill="#66b748" fill-rule="evenodd" d="M31.54,22.16a46.93,46.93,0,0,0,3.34-10.59,1,1,0,1,1,2,.33,48.93,48.93,0,0,1-3.4,10.88c-.78.29-1.28.43-1.28.43S31.91,22.82,31.54,22.16Z"/></svg>