<svg xmlns="http://www.w3.org/2000/svg" enable-background="new 0 0 1024 1024" viewBox="0 0 1024 1024"><path d="M929,512c0,13.7-0.6,27.3-1.9,40.9c-0.3,3.5-0.7,7-1.1,10.5c-0.2,1.7-0.4,3.5-0.6,5.2
				c0.5-4.2,0-0.3-0.1,0.8c-1,6.9-2.1,13.8-3.5,20.6c-5,26.1-12.5,51.7-22.2,76.5c-1,2.6-2.1,5.2-3.2,7.9c1.8-4.3-0.4,0.9-0.6,1.5
				c-0.7,1.6-1.4,3.1-2,4.6c-2.8,6.2-5.7,12.3-8.7,18.3c-5.6,11-11.6,21.8-18.1,32.3c-5.8,9.5-12,18.7-18.6,27.7
				c-1.4,1.9-2.9,3.9-4.3,5.8c-0.9,1.2-1.7,2.3-2.6,3.5c3.3-4.1,0.2-0.2-0.4,0.5c-3.6,4.5-7.3,9-11,13.4
				c-14.4,16.8-30.1,32.5-46.8,47c-4,3.5-8.1,6.8-12.2,10.2c-1,0.8-7,5.6-2.8,2.2c-2.6,2.1-5.4,4.1-8.1,6.1
				c-9,6.6-18.2,12.8-27.6,18.7c-18.7,11.7-38.7,23-59.4,30.9c5.1-1.9-2,0.8-3.4,1.4c-2.7,1.1-5.5,2.2-8.2,3.2
				c-5.5,2.1-11.1,4.1-16.7,5.9c-10.8,3.6-21.7,6.8-32.8,9.5c-11.2,2.8-22.4,5.1-33.8,7c-3,0.5-6,1-9,1.4c-0.9,0.1-2.1,0.2-3,0.4
				c4.8-1.5,0.7-0.1-0.7,0.1c-6.1,0.7-12.1,1.4-18.2,1.8c-23.6,1.9-47.3,1.9-70.9,0c-5.6-0.4-11.1-1-16.7-1.7
				c-1.5-0.2-3-0.3-4.5-0.6c5.4,1,0.3,0-0.7-0.1c-3-0.4-6-0.9-9-1.4c-11.3-1.9-22.6-4.2-33.8-7c-11-2.7-22-5.9-32.8-9.5
				c-5.1-1.7-10.2-3.5-15.3-5.4c-2.8-1-5.5-2.1-8.2-3.2c-1.4-0.5-2.7-1.1-4.1-1.7c-1.1-0.4-5.4-2.1-0.6-0.2
				c-20.7-7.9-40.7-19.2-59.4-30.9c-9.4-5.9-18.6-12.1-27.6-18.7c-2.3-1.7-4.6-3.5-6.9-5.2c-4-3,3.4,2.7-0.5-0.4
				c-0.8-0.6-1.5-1.2-2.3-1.8c-4.5-3.6-9-7.3-13.3-11.1c-16.9-14.6-32.8-30.5-47.3-47.6c-3.6-4.2-7.1-8.5-10.5-12.8
				c-0.4-0.6-1.3-2-1.8-2.3c0.5,0.6,0.9,1.2,1.4,1.8c-0.6-0.8-1.2-1.5-1.8-2.3c-1.9-2.5-3.8-5-5.6-7.6c-6.7-9.2-13-18.6-18.9-28.3
				c-6.5-10.6-12.5-21.5-18.1-32.6c-2.8-5.5-5.4-11.1-8-16.8c-1.2-2.6-2.3-5.2-3.4-7.8c1.8,4.3-0.3-0.9-0.6-1.5
				c-0.9-2.1-1.7-4.2-2.5-6.3c-9.5-24.5-16.8-49.9-21.8-75.7c-1.2-6.3-2.3-12.6-3.2-18.9c0,0-0.8-5.6-0.4-2.5
				c0.4,3.1-0.3-2.6-0.3-2.6c-0.5-4.1-0.9-8.2-1.3-12.3C95.6,539.3,95,525.7,95,512c0-10.8,0.4-21.5,1.2-32.2
				c0.4-5.1,0.8-10.1,1.4-15.2c0.2-2.3,0.5-4.6,0.8-6.9c0.2-1.3,0.1-5.8,0-0.1c0-1.8,0.5-3.7,0.8-5.4c3.1-20.6,7.6-41,13.6-60.9
				c3-9.8,6.3-19.6,9.9-29.2c1.7-4.4,3.1-9.5,5.4-13.6c-2.9,5.2,0.8-1.8,1.4-3.2c1.2-2.6,2.4-5.2,3.6-7.9
				c8.6-18.4,18.4-36.1,29.5-53.1c5.5-8.5,11.3-16.7,17.3-24.8c0.7-1,1.5-2.3,2.4-3.1c-3.7,3.3-0.9,1.1,0.1-0.1
				c1.4-1.7,2.7-3.4,4.1-5.1c3.3-4.1,6.7-8.1,10.1-12c13.2-15.2,27.5-29.4,42.6-42.6c3.6-3.2,7.3-6.3,11-9.3c2-1.7,4.1-3.3,6.1-4.9
				c1.3-1,3.3-3.8,0.1-0.1c0.8-0.9,2.2-1.7,3.1-2.4c8.1-6.1,16.3-11.8,24.8-17.3c17-11,34.7-20.9,53.1-29.5c4.1-1.9,8.9-5.1,13.3-6
				c-4.8,0.9-1.4,0.6,0.1,0c1.2-0.5,2.5-1,3.7-1.5c2.5-1,5-2,7.5-2.9c9.6-3.7,19.3-7,29.2-9.9c20.2-6.1,40.8-10.7,61.6-13.7
				c1.1-0.2,2.3-0.3,3.4-0.5c4.8-0.7-4.7,0.6,0.1,0c2.7-0.3,5.5-0.7,8.2-1c5.3-0.6,10.6-1,15.9-1.4c11-0.8,22-1.2,33-1.1
				c10.7,0,21.5,0.5,32.2,1.3c5.1,0.4,10.1,0.9,15.2,1.4c2.3,0.3,4.6,0.5,6.9,0.8c4.8,0.6-4.7-0.7,0.1,0c1.8,0.3,3.6,0.5,5.4,0.8
				c20.6,3.1,40.9,7.8,60.8,13.8c9.8,3,19.5,6.3,29.1,10c2.1,0.8,4.1,1.6,6.2,2.4c1.2,0.5,2.5,1,3.7,1.5c1.5,0.6,5,1.1,0.1,0
				c4.8,1,10.1,4.4,14.5,6.5c18.3,8.6,36,18.5,53,29.6c8.4,5.5,16.7,11.3,24.7,17.4c1,0.8,4.7,2.8,0.1,0.1c0.7,0.4,1.4,1.1,2.1,1.6
				c2.1,1.6,4.1,3.3,6.1,4.9c4.1,3.3,8.1,6.7,12,10.2c15.1,13.3,29.3,27.5,42.5,42.7c3.1,3.6,6.2,7.3,9.3,11.1
				c1.7,2,3.3,4.1,4.9,6.2c0.9,1.2,2.3,1.7-0.7-0.9c1.2,1.1,2.2,2.9,3.2,4.2c6,8.1,11.8,16.4,17.3,24.8c11,17,20.8,34.8,29.3,53.2
				c1.1,2.4,2.2,4.8,3.3,7.3c0.6,1.4,4,7.7,1.1,2.6c2.5,4.5,4.1,10,5.9,14.9c3.6,9.6,6.9,19.4,9.8,29.2c5.9,20,10.4,40.4,13.5,61
				c0.2,1.3,0.6,2.8,0.6,4.1c-0.1-5.6-0.2-1.2,0,0.1c0.3,2.3,0.5,4.6,0.8,6.9c0.5,5.1,1,10.1,1.4,15.2
				C928.6,490.5,929,501.2,929,512c0,10.5,9.2,20.5,20,20c10.8-0.5,20-8.8,20-20c-0.1-87.9-25.6-175.3-73.7-248.9
				C848.6,191.6,782,133.1,704.4,97.4C621.7,59.4,530,47,440.1,60.7C354.5,73.8,273.8,112.8,208.9,170
				C144.6,226.7,97,302.1,73,384.5c-28.2,96.9-23.4,203.8,14.7,297.4c37,91.1,102.1,168.8,186.1,220.2
				c82.7,50.7,181.7,73.9,278.2,65.1c96.8-8.8,188.4-47.9,261.6-111.9c76.1-66.6,129.4-159.3,147.6-258.9
				c5.1-27.8,7.8-56.1,7.9-84.4c0-10.5-9.2-20.5-20-20C938.1,492.5,929,500.8,929,512z"/><path d="M363,689.3c10.8-10.8,21.7-21.7,32.5-32.5c25.9-25.9,51.9-51.9,77.8-77.8c31.5-31.5,62.9-62.9,94.4-94.4
				c27.1-27.1,54.2-54.2,81.3-81.3c13.2-13.2,26.8-26.1,39.6-39.6c0.2-0.2,0.4-0.4,0.6-0.6c7.4-7.4,8-21,0-28.3
				c-8-7.3-20.4-7.9-28.3,0c-10.8,10.8-21.7,21.7-32.5,32.5c-25.9,25.9-51.9,51.9-77.8,77.8c-31.5,31.5-62.9,62.9-94.4,94.4
				c-27.1,27.1-54.2,54.2-81.3,81.3c-13.2,13.2-26.8,26.1-39.6,39.6c-0.2,0.2-0.4,0.4-0.6,0.6c-7.4,7.4-8,21,0,28.3
				C342.7,696.6,355.1,697.2,363,689.3L363,689.3z"/><path d="M689.3,661c-10.8-10.8-21.7-21.7-32.5-32.5c-25.9-25.9-51.9-51.9-77.8-77.8
				c-31.5-31.5-62.9-62.9-94.4-94.4c-27.1-27.1-54.2-54.2-81.3-81.3c-13.2-13.2-26.1-26.8-39.6-39.6c-0.2-0.2-0.4-0.4-0.6-0.6
				c-7.4-7.4-21-8-28.3,0c-7.3,8-7.9,20.4,0,28.3c10.8,10.8,21.7,21.7,32.5,32.5c25.9,25.9,51.9,51.9,77.8,77.8
				c31.5,31.5,62.9,62.9,94.4,94.4c27.1,27.1,54.2,54.2,81.3,81.3c13.2,13.2,26.1,26.8,39.6,39.6c0.2,0.2,0.4,0.4,0.6,0.6
				c7.4,7.4,21,8,28.3,0C696.6,681.3,697.2,668.9,689.3,661L689.3,661z"/></svg>